<?xml version="1.0" encoding="UTF-8" standalone="no"?>
<svg
   height="48"
   width="48"
   version="1.1"
   id="svg4"
   sodipodi:docname="cascadetile.svg"
   inkscape:version="1.3 (0e150ed6c4, 2023-07-21)"
   xmlns:inkscape="http://www.inkscape.org/namespaces/inkscape"
   xmlns:sodipodi="http://sodipodi.sourceforge.net/DTD/sodipodi-0.dtd"
   xmlns="http://www.w3.org/2000/svg"
   xmlns:svg="http://www.w3.org/2000/svg">
  <defs
     id="defs4" />
  <sodipodi:namedview
     id="namedview4"
     pagecolor="#ffffff"
     bordercolor="#000000"
     borderopacity="0.25"
     inkscape:showpageshadow="2"
     inkscape:pageopacity="0.0"
     inkscape:pagecheckerboard="0"
     inkscape:deskcolor="#d1d1d1"
     inkscape:zoom="12.993579"
     inkscape:cx="28.552564"
     inkscape:cy="23.973379"
     inkscape:window-width="1916"
     inkscape:window-height="1076"
     inkscape:window-x="0"
     inkscape:window-y="0"
     inkscape:window-maximized="1"
     inkscape:current-layer="g4"
     showguides="false" />
  <g
     fill="#a0a0a0"
     id="g4"
     transform="matrix(2.25,0,0,2.25,3,3)">
    <path
       id="path32"
       style="stroke-width:1.14305"
       d="M -1.3333333,-1.3333333 V -0.16666667 18.833333 20 h 1.146701 8.7647569 0.01042 V -1.3333333 h -0.01042 -8.7647569 z m 13.8090113,0 V 0.65798611 1.9652778 H 14.5321 V 0.65798611 h 4.2804 V 14.631076 h -0.999019 v 1.99132 H 18.8125 19.979167 V 14.631076 -1.3333333 H 14.532101 Z M 17.813481,16.622396 H 15.757926 V 14.665798 H 14.5321 V 3.9913195 H 12.476546 V 16.657118 h 3.28138 v 1.272569 l -4.520263,0 V 3.9565972 h 1.238015 V 1.9652778 H 11.237663 9.2847226 V 3.9565972 20 h 6.4732034 2.055555 v -2.070313 z m 0,-1.99132 V 1.9652778 H 14.5321 v 1.9913194 h 1.225826 V 14.631076 Z M 1.5911455,1.6111111 H 5.6649308 V 17.055555 H 1.5911455 Z"
       sodipodi:nodetypes="ccccccccccccccccccccccccccccccccccccccccccccccccccccccccccc" />
  </g>
</svg>
