<?xml version="1.0" encoding="UTF-8" standalone="no"?>
<svg
   height="48pt"
   viewBox="0 0 48 48"
   width="48pt"
   version="1.1"
   id="svg2"
   sodipodi:docname="conky.svg"
   inkscape:version="1.3 (0e150ed6c4, 2023-07-21)"
   xmlns:inkscape="http://www.inkscape.org/namespaces/inkscape"
   xmlns:sodipodi="http://sodipodi.sourceforge.net/DTD/sodipodi-0.dtd"
   xmlns="http://www.w3.org/2000/svg"
   xmlns:svg="http://www.w3.org/2000/svg">
  <defs
     id="defs2" />
  <sodipodi:namedview
     id="namedview2"
     pagecolor="#ffffff"
     bordercolor="#000000"
     borderopacity="0.25"
     inkscape:showpageshadow="2"
     inkscape:pageopacity="0.0"
     inkscape:pagecheckerboard="0"
     inkscape:deskcolor="#d1d1d1"
     inkscape:document-units="pt"
     showguides="true"
     inkscape:zoom="8.1230812"
     inkscape:cx="78.295413"
     inkscape:cy="7.2632537"
     inkscape:window-width="1916"
     inkscape:window-height="1076"
     inkscape:window-x="0"
     inkscape:window-y="0"
     inkscape:window-maximized="1"
     inkscape:current-layer="svg2" />
  <linearGradient
     id="a"
     gradientTransform="matrix(47 0 0 44.762 .5 1.619)"
     gradientUnits="userSpaceOnUse"
     x1="-.000038"
     x2=".999962"
     y1=".5"
     y2=".5">
    <stop
       offset="0"
       stop-color="#d300dc"
       id="stop1" />
    <stop
       offset="1"
       stop-color="#8700ff"
       id="stop2" />
  </linearGradient>
  <path
     d="m20.643 36.297v1.766c-2.294.544-4.159 1.701-5.852 3.338-1.117 1.081-1.182 3.082 0 4.144.654.582 1.489.871 2.306.833.692-.032 1.379-.302 1.928-.833.216-.211.438-.409.667-.595.098-.064.196-.135.294-.199.392-.255.795-.472 1.22-.671.575-.211 1.171-.369 1.772-.472.353-.032.669-.045 1.022-.039.353-.006.669.007 1.022.039.601.103 1.197.261 1.772.472.425.199.828.416 1.22.671.098.064.196.135.294.199.229.186.451.384.667.595.549.531 1.236.801 1.928.833.817.038 1.652-.251 2.306-.833 1.182-1.062 1.117-3.063 0-4.144-1.693-1.637-3.558-2.794-5.852-3.338v-1.766h7.305c.404 0 .815.013 1.225.013h.291c.259 0 .512-.007.771-.02 2.325-.114 4.562-.952 6.362-2.361.373-.286.727-.603 1.062-.946.669-.68 1.257-1.454 1.724-2.311.86-1.556 1.327-2.841 1.384-4.619.006-.101.006-.203.006-.298.013-1.435-1.194-2.813-2.659-2.921-.083 0-.171-.006-.253 0h-.032c-.031 0-.069.007-.101.007-.726.057-1.39.368-1.883.844-.372.362-.65 1.056-.783 1.583-.057.223-.089.457-.089.699 0 .235-.012.463-.031.698-.082.451-.202.441-.36.873-.158.33-.335.653-.537.958-.045.07-.089.134-.133.197-.145.171-.291.337-.449.495-.158.153-.322.299-.486.445-.07.05-.133.095-.202.139-.31.204-.632.381-.961.54-.423.152-.859.273-1.307.356-.379.031-.759.044-1.144.044h-.303c-.499 0-.992-.013-1.479-.013h-20.078c-.613 0-1.232.026-1.858.026h-.253-.038c-.442 0-.884-.013-1.32-.051-.449-.083-.885-.203-1.314-.356-.329-.158-.651-.336-.961-.539-.063-.045-.126-.089-.189-.134-.164-.146-.335-.292-.493-.45-.158-.159-.303-.324-.448-.489-.045-.064-.089-.127-.133-.197-.202-.305-.373-.622-.531-.946-.158-.438-.278-.883-.366-1.34v-.006c-.051-.508-.07-1.022-.076-1.543v-.006c-.013-1.073.044-2.371.044-3.424v-7.333-.757-.032c-.006-.248-.006-.495 0-.743v-.038c.006-.216.013-.438.032-.654.088-.451.208-.889.366-1.32.158-.331.335-.642.531-.946.044-.064.088-.127.133-.191.151-.165.296-.336.454-.495.158-.165.323-.311.493-.457.063-.045.127-.089.19-.134.303-.203.619-.381.947-.539.43-.159.872-.28 1.321-.362.404-.032.815-.045 1.226-.045h.221.006c.493 0 .992.013 1.478.013h20.092c.613 0 1.232-.025 1.851-.025h.291c.442.006.884.019 1.326.057.449.082.898.203 1.327.362.322.158.645.336.948.539.07.045.133.089.196.134.164.146.335.292.493.451.158.152.303.317.448.488.045.07.089.134.133.197.202.305.373.622.531.952.164.432.278.877.366 1.327.019.21.025-.022.032.194v.05c.006.769.341 1.741.872 2.287.461.477 1.08.8 1.756.845.044.006.082.006.126.006h.139.026c1.478-.082 2.761-1.181 2.862-2.692.006-.07.006-.146.006-.216-.032-3.828-2.028-6.954-5.276-8.961-1.87-1.149-3.999-1.587-6.16-1.587h-21.506-2.957c-2.881 0-5.611 1.06-7.715 3.041-2.223 2.102-3.386 5.098-3.386 8.139v.502 4.584 5.6.87c.006 1.466.051 2.92.531 4.329.53 1.581 1.409 3.029 2.546 4.229.341.362.714.705 1.099 1.016 1.201.971 2.61 1.688 4.151 2.05 1.295.305 2.565.318 3.873.318zm-6.927-19.663h4v10.929h-4zm16.568 4h4v6.929h-4zm-8.284-9.633h4v16.562h-4z"
     fill="url(#a)"
     fill-rule="evenodd"
     id="path2" />
  <path
     style="fill:#a0a0a0;stroke-width:0.126972"
     d="m 29.230689,14.601829 c 0,7.406725 0,14.81345 0,22.220175 0.836663,0.239627 1.859966,0.02867 2.766362,0.09994 0.908964,-0.06508 1.926175,0.131176 2.766363,-0.09994 0,-7.406725 0,-14.81345 0,-22.220175 -0.836663,-0.239627 -1.859966,-0.02867 -2.766363,-0.09994 -0.904723,0.06523 -1.932267,-0.131312 -2.766362,0.09994 z"
     id="path30"
     transform="scale(0.75)" />
  <path
     style="fill:#a0a0a0;stroke-width:0.126972"
     d="m 22.042116,22.081051 c -1.253544,0.0081 -2.506729,0.04169 -3.760071,0.06349 -0.234728,0.881926 -0.02819,1.944046 -0.09796,2.893334 0,3.928044 0,7.856089 0,11.784133 0.836663,0.239627 1.859966,0.02867 2.766362,0.09994 0.908964,-0.06508 1.926175,0.131176 2.766362,-0.09994 0,-4.85744 0,-9.714879 0,-14.572318 -0.453752,-0.306502 -1.140441,-0.107051 -1.674696,-0.168635 z"
     id="path31"
     transform="scale(0.75)" />
  <path
     style="fill:#a0a0a0;stroke-width:0.126972"
     d="m 40.27729,27.553017 c 0,3.089662 0,6.179324 0,9.268987 0.836663,0.239627 1.859966,0.02867 2.766363,0.09994 0.908963,-0.06508 1.926174,0.131176 2.766362,-0.09994 0,-3.089663 0,-6.179325 0,-9.268987 -0.836663,-0.239628 -1.859966,-0.02867 -2.766362,-0.09994 -0.904724,0.06523 -1.932268,-0.131311 -2.766363,0.09994 z"
     id="path32"
     transform="scale(0.75)" />
  <path
     style="fill:#a0a0a0;stroke-width:0.126972"
     d="M 25.621895,2.060574 C 21.315325,2.1270807 16.991539,1.9294313 12.697491,2.3184867 7.6266425,3.183204 3.185454,6.9238716 1.4937202,11.788072 0.80142819,13.513614 0.61114626,15.370219 0.64957471,17.215589 0.576658,23.433529 0.49884385,29.658151 0.74422705,35.872687 1.607205,41.913865 6.5833117,47.284786 12.667731,48.241586 c 4.327606,0.310669 8.675779,0.14415 13.011553,0.237909 0.645292,0.162161 2.061822,-0.44037 1.773054,0.647922 -0.06856,0.711519 0.336193,1.774946 -0.73107,1.743837 -2.9427,0.894122 -5.69361,2.622931 -7.627789,5.027116 -1.188368,1.706649 -0.600388,4.248378 1.161847,5.32565 1.568866,1.067117 3.866488,0.889237 5.219204,-0.463283 1.937162,-1.863441 4.677019,-2.727182 7.337397,-2.47994 2.258956,0.08279 4.348882,1.169068 5.970041,2.69838 1.128522,1.022996 2.844896,1.112347 4.229941,0.645849 1.527208,-0.543017 2.603595,-2.087342 2.47621,-3.719647 0.07093,-2.003682 -1.672218,-3.337263 -3.093217,-4.44106 -1.721746,-1.318352 -3.723007,-2.216159 -5.79262,-2.833567 0.07208,-0.663773 -0.232279,-1.690114 0.05951,-2.142168 4.820587,-0.05272 9.653943,-0.0083 14.466624,-0.121346 3.718472,-0.818925 7.261378,-2.810122 9.473881,-5.968119 1.877629,-2.634423 3.197428,-5.93902 2.65303,-9.212693 -0.608158,-1.64211 -2.305926,-3.124639 -4.152395,-2.772066 -1.606295,0.05414 -2.999372,1.271413 -3.348154,2.826873 -0.337101,1.234245 -0.21702,2.599669 -0.958989,3.708735 -1.071199,2.240841 -3.437633,3.907228 -5.96944,3.759575 -11.550301,0.139246 -23.102497,0.05625 -34.653553,0.09746 -2.39034,-0.519566 -4.5296645,-2.198519 -5.3030826,-4.5534 C 8.2787175,34.512285 8.5952017,32.624802 8.4853179,30.806936 8.5158704,25.73099 8.3849525,20.64106 8.5842784,15.573714 c 0.2813743,-2.52353 2.2086946,-4.735336 4.5841516,-5.529005 2.876175,-0.4228918 5.812721,-0.2152734 8.715463,-0.2908629 8.941235,0.029726 17.88448,-0.088264 26.824416,0.079325 1.290745,5.048e-4 2.627626,0.1706039 3.690384,0.9763489 1.892139,1.159208 2.879717,3.304783 3.148521,5.436012 0.15367,1.711987 1.232295,3.48101 3.016338,3.831983 2.280943,0.538231 4.934776,-1.311837 4.826322,-3.739217 C 63.561488,12.250511 61.513105,8.3074519 58.416136,5.7166015 55.572403,3.1804684 51.712101,1.9340945 47.924165,2.1202572 40.490439,2.0412327 33.055922,2.0638917 25.621895,2.060574 Z"
     id="path33"
     transform="scale(0.75)" />
</svg>
