<?xml version="1.0" encoding="UTF-8" standalone="no"?>
<svg
   width="24"
   height="24"
   viewBox="0 0 24 24"
   fill="none"
   version="1.1"
   id="svg4"
   sodipodi:docname="nvim.svg"
   inkscape:version="1.2.2 (b0a8486541, 2022-12-01)"
   xmlns:inkscape="http://www.inkscape.org/namespaces/inkscape"
   xmlns:sodipodi="http://sodipodi.sourceforge.net/DTD/sodipodi-0.dtd"
   xmlns="http://www.w3.org/2000/svg"
   xmlns:svg="http://www.w3.org/2000/svg">
  <defs
     id="defs8" />
  <sodipodi:namedview
     id="namedview6"
     pagecolor="#ffffff"
     bordercolor="#000000"
     borderopacity="0.25"
     inkscape:showpageshadow="2"
     inkscape:pageopacity="0.0"
     inkscape:pagecheckerboard="0"
     inkscape:deskcolor="#d1d1d1"
     showgrid="false"
     inkscape:zoom="45.254834"
     inkscape:cx="15.003922"
     inkscape:cy="15.302233"
     inkscape:window-width="1916"
     inkscape:window-height="1076"
     inkscape:window-x="0"
     inkscape:window-y="0"
     inkscape:window-maximized="1"
     inkscape:current-layer="svg4" />
  <path
     d="M2.21411 4.954V18.569L7.65511 24V10.314L3.31211 3.845L2.21411 4.954ZM7.21311 22.934L2.65611 18.386V5.136L3.24611 4.54L7.21311 10.448V22.933V22.934ZM21.7861 18.477L20.9241 19.414L16.6841 13.038V0L21.7521 5.092L21.7861 18.477ZM7.43111 0.001L20.4291 19.836L16.7921 23.473L3.78711 3.683L7.43011 0L7.43111 0.001Z"
     fill="black"
     id="path2" />
  <path
     style="fill:#a0a0a0;stroke:none;stroke-width:0.0220971"
     d="m 16.675403,0 c 4.4e-4,4.3501797 -0.0036,8.701028 -4.32e-4,13.05079 1.415606,2.120983 2.813717,4.254126 4.246827,6.363098 0.164626,-0.130656 0.301165,-0.316937 0.454026,-0.468787 0.142261,-0.157084 0.290778,-0.310254 0.42921,-0.469735 -0.01649,-4.461246 -0.02879,-8.9240551 -0.03233,-13.3843611 -1.693404,-1.699361 -3.38681,-3.398722 -5.080215,-5.09808287 z"
     id="path3032" />
  <path
     style="fill:#a0a0a0;stroke:none;stroke-width:0.0220971"
     d="M 7.4195716,0.0136812 C 6.1858284,1.2162031 4.9888428,2.456776 3.7736386,3.6783449 4.2689538,4.4582349 4.7940711,5.2332918 5.3003501,6.0115587 9.0925727,11.774634 12.86893,17.548284 16.6807,23.298408 c 0.04663,0.04465 0.06976,0.150537 0.130738,0.162743 1.144065,-1.104008 2.260809,-2.236579 3.378265,-3.367476 0.07453,-0.08839 0.179079,-0.16306 0.236896,-0.26059 C 18.54888,16.927864 16.644204,14.039775 14.750991,11.144492 12.317721,7.4383207 9.8939508,3.7257319 7.4440425,0.03059929 7.4376808,0.02467684 7.432977,0.00706534 7.4195716,0.0136812 Z"
     id="path3034" />
  <path
     style="fill:#a0a0a0;stroke:none;stroke-width:0.0220971"
     d="M 2.7548853,4.390415 C 2.5706897,4.5773241 2.3797365,4.7597147 2.1996959,4.9494022 c 0.00196,4.5395191 -0.00391,9.0805968 0.00293,13.6191428 1.8139456,1.808628 3.6161589,3.629404 5.4421844,5.425655 0.048897,-0.0577 0.00286,-0.179839 0.020609,-0.257694 0.018832,-4.474124 0.010424,-8.949015 0.00895,-13.422734 C 6.2233756,8.1560175 4.7774231,5.9947811 3.3223747,3.8398004 3.1250563,3.9985543 2.9448779,4.2114864 2.7548853,4.390415 Z m 0.5344732,0.2411689 c 1.3029142,1.9366684 2.6030743,3.8752271 3.9043654,5.8130011 -0.0037,4.144096 -0.00741,8.288192 -0.011135,12.432287 -1.5069594,-1.504229 -3.013935,-3.008442 -4.5209259,-4.512639 0,-4.404024 0,-8.8080486 0,-13.2120728 0.1966977,-0.1921057 0.3839288,-0.3937326 0.5907949,-0.5749127 0.0123,0.018112 0.0246,0.036224 0.036901,0.054336 z"
     id="path3036" />
</svg>
