<?xml version="1.0" encoding="UTF-8" standalone="no"?>
<!-- Svg Vector Icons : http://www.onlinewebfonts.com/icon -->

<svg
   version="1.1"
   x="0px"
   y="0px"
   viewBox="0 0 256 256"
   enable-background="new 0 0 256 256"
   xml:space="preserve"
   id="svg18"
   sodipodi:docname="Hibernate_button.svg"
   inkscape:version="1.3 (0e150ed6c4, 2023-07-21)"
   xmlns:inkscape="http://www.inkscape.org/namespaces/inkscape"
   xmlns:sodipodi="http://sodipodi.sourceforge.net/DTD/sodipodi-0.dtd"
   xmlns="http://www.w3.org/2000/svg"
   xmlns:svg="http://www.w3.org/2000/svg"><defs
   id="defs18" /><sodipodi:namedview
   id="namedview18"
   pagecolor="#ffffff"
   bordercolor="#000000"
   borderopacity="0.25"
   inkscape:showpageshadow="2"
   inkscape:pageopacity="0.0"
   inkscape:pagecheckerboard="0"
   inkscape:deskcolor="#d1d1d1"
   inkscape:zoom="3.59375"
   inkscape:cx="128"
   inkscape:cy="128"
   inkscape:window-width="1916"
   inkscape:window-height="1076"
   inkscape:window-x="0"
   inkscape:window-y="0"
   inkscape:window-maximized="1"
   inkscape:current-layer="svg18" />&#10;<metadata
   id="metadata1"> Svg Vector Icons : http://www.onlinewebfonts.com/icon </metadata>&#10;<g
   id="g18"
   style="fill:#a0a0a0"><g
     id="g17"
     style="fill:#a0a0a0"><g
       id="g1"
       style="fill:#a0a0a0"><path
         fill="#000000"
         d="M128,10C62.8,10,10,62.8,10,128c0,65.2,52.8,118,118,118c65.2,0,118-52.8,118-118C246,62.8,193.2,10,128,10z M128,220.7c-51.2,0-92.7-41.5-92.7-92.7c0-51.2,41.5-92.7,92.7-92.7c51.2,0,92.7,41.5,92.7,92.7C220.7,179.2,179.2,220.7,128,220.7z M146.4,81.9V174c0,10.2-8.2,18.4-18.4,18.4c-10.2,0-18.4-8.2-18.4-18.4V81.9c0-10.2,8.2-18.4,18.4-18.4C138.2,63.5,146.4,71.8,146.4,81.9z"
         id="path1"
         style="fill:#a0a0a0" /></g><g
       id="g2"
       style="fill:#a0a0a0" /><g
       id="g3"
       style="fill:#a0a0a0" /><g
       id="g4"
       style="fill:#a0a0a0" /><g
       id="g5"
       style="fill:#a0a0a0" /><g
       id="g6"
       style="fill:#a0a0a0" /><g
       id="g7"
       style="fill:#a0a0a0" /><g
       id="g8"
       style="fill:#a0a0a0" /><g
       id="g9"
       style="fill:#a0a0a0" /><g
       id="g10"
       style="fill:#a0a0a0" /><g
       id="g11"
       style="fill:#a0a0a0" /><g
       id="g12"
       style="fill:#a0a0a0" /><g
       id="g13"
       style="fill:#a0a0a0" /><g
       id="g14"
       style="fill:#a0a0a0" /><g
       id="g15"
       style="fill:#a0a0a0" /><g
       id="g16"
       style="fill:#a0a0a0" /></g></g>&#10;</svg>
