<?xml version="1.0" encoding="UTF-8" standalone="no"?>
<svg
   width="16"
   height="16"
   version="1"
   id="svg2"
   sodipodi:docname="picom.svg"
   inkscape:version="1.3 (0e150ed6c4, 2023-07-21)"
   xmlns:inkscape="http://www.inkscape.org/namespaces/inkscape"
   xmlns:sodipodi="http://sodipodi.sourceforge.net/DTD/sodipodi-0.dtd"
   xmlns="http://www.w3.org/2000/svg"
   xmlns:svg="http://www.w3.org/2000/svg">
  <defs
     id="defs2" />
  <sodipodi:namedview
     id="namedview2"
     pagecolor="#ffffff"
     bordercolor="#000000"
     borderopacity="0.25"
     inkscape:showpageshadow="2"
     inkscape:pageopacity="0.0"
     inkscape:pagecheckerboard="0"
     inkscape:deskcolor="#d1d1d1"
     inkscape:zoom="256"
     inkscape:cx="8.0429688"
     inkscape:cy="0.66601562"
     inkscape:window-width="1916"
     inkscape:window-height="1076"
     inkscape:window-x="0"
     inkscape:window-y="0"
     inkscape:window-maximized="1"
     inkscape:current-layer="svg2" />
  <path
     id="path1"
     style="fill:#A0A0A0"
     d="M 7.5996094 0 C 6.7132103 0 6 0.71321023 6 1.5996094 L 6 2.3496094 A 6 6 0 0 0 4.1074219 3.4433594 L 3.4570312 3.0683594 C 2.6893873 2.6251598 1.7146839 2.8866524 1.2714844 3.6542969 L 0.87109375 4.3457031 C 0.42789419 5.1133476 0.68938717 6.0880504 1.4570312 6.53125 L 2.1054688 6.90625 A 6 6 0 0 0 2 8 A 6 6 0 0 0 2.1054688 9.09375 L 1.4570312 9.46875 C 0.68938717 9.9119496 0.42789419 10.886653 0.87109375 11.654297 L 1.2714844 12.345703 C 1.7146839 13.113347 2.6893873 13.37484 3.4570312 12.931641 L 4 12.619141 L 4 8 C 4 5.7908676 5.7908676 4 8 4 C 10.209133 4 12 5.7908676 12 8 C 12 10.209133 10.209133 12 8 12 C 7.2973901 11.9984 6.6075789 11.811846 6 11.458984 L 6 13.648438 L 6 14.400391 C 6 15.28679 6.7132103 16 7.5996094 16 L 8.4003906 16 C 9.2867897 16 10 15.28679 10 14.400391 L 10 13.644531 A 6 6 0 0 0 11.892578 12.556641 L 12.542969 12.931641 C 13.310612 13.37484 14.285316 13.113347 14.728516 12.345703 L 15.128906 11.654297 C 15.572106 10.886653 15.310612 9.9119496 14.542969 9.46875 L 13.894531 9.09375 A 6 6 0 0 0 14 8 A 6 6 0 0 0 13.894531 6.90625 L 14.542969 6.53125 C 15.310612 6.0880504 15.572106 5.1133476 15.128906 4.3457031 L 14.728516 3.6542969 C 14.285316 2.8866524 13.310612 2.6251598 12.542969 3.0683594 L 11.896484 3.4414062 A 6 6 0 0 0 10 2.3515625 L 10 1.5996094 C 10 0.71321024 9.2867897 -1.4802959e-16 8.4003906 0 L 7.5996094 0 z M 8 6 C 6.8954338 6 6 6.8954338 6 8 C 6 9.1045662 6.8954338 10 8 10 C 9.1045662 10 10 9.1045662 10 8 C 10 6.8954338 9.1045662 6 8 6 z M 5.3066406 13.353516 A 6 6 0 0 0 5.3515625 13.375 C 5.3366821 13.367709 5.3214582 13.360929 5.3066406 13.353516 z " />
</svg>
